<?xml version="1.0" encoding="UTF-8" standalone="no"?>
<svg
   xmlns:dc="http://purl.org/dc/elements/1.1/"
   xmlns:cc="http://creativecommons.org/ns#"
   xmlns:rdf="http://www.w3.org/1999/02/22-rdf-syntax-ns#"
   xmlns:svg="http://www.w3.org/2000/svg"
   xmlns="http://www.w3.org/2000/svg"
   xmlns:sodipodi="http://sodipodi.sourceforge.net/DTD/sodipodi-0.dtd"
   xmlns:inkscape="http://www.inkscape.org/namespaces/inkscape"
   width="2295"
   height="889"
   viewBox="0 0 2295 889"
   fill="none"
   version="1.1"
   id="svg70"
   sodipodi:docname="hacktober_simbolo.svg"
   inkscape:version="1.0.1 (3bc2e813f5, 2020-09-07)">
  <metadata
     id="metadata76">
    <rdf:RDF>
      <cc:Work
         rdf:about="">
        <dc:format>image/svg+xml</dc:format>
        <dc:type
           rdf:resource="http://purl.org/dc/dcmitype/StillImage" />
      </cc:Work>
    </rdf:RDF>
  </metadata>
  <defs
     id="defs74">
    <clipPath
       clipPathUnits="userSpaceOnUse"
       id="clipPath161">
      <ellipse
         style="fill:#ff0000;fill-rule:evenodd;stroke-width:1.03167"
         id="ellipse163"
         cx="1963.9752"
         cy="-793.6687"
         rx="618.99603"
         ry="381.00464" />
    </clipPath>
  </defs>
  <sodipodi:namedview
     pagecolor="#ffffff"
     bordercolor="#666666"
     borderopacity="1"
     objecttolerance="10"
     gridtolerance="10"
     guidetolerance="10"
     inkscape:pageopacity="0"
     inkscape:pageshadow="2"
     inkscape:window-width="1920"
     inkscape:window-height="1001"
     id="namedview72"
     showgrid="false"
     inkscape:zoom="0.16192734"
     inkscape:cx="-1087.6623"
     inkscape:cy="138.01881"
     inkscape:window-x="-9"
     inkscape:window-y="-9"
     inkscape:window-maximized="1"
     inkscape:current-layer="svg70" />
  <g
     id="g112"
     transform="matrix(0.85916508,0,0,0.81808007,218.30224,97.346518)"
     inkscape:export-xdpi="200"
     inkscape:export-ydpi="200">
    <path
       d="m 2197,114.81 -0.58,-23.91 -72.05,-0.4601 c 4.5,81.0601 4.5,110.3301 4.5,247.2201 27,11.71 56.74,23.87 68.45,32.42 l 56.29,-62.59 c -15.76,-1.35 -42.33,-10.35 -57.19,-18.91 0,-80.61 0,-105.82 0.9,-133.29 z"
       fill="#f74700"
       id="path2" />
    <path
       d="m 1193.92,288.58 -67.55,49.08 c 27,11.71 54.5,23.87 66.2,32.42 l 56.29,-62.59 c -15.76,-1.35 -40.08,-10.35 -54.94,-18.91 z"
       fill="#b53a25"
       id="path4" />
    <path
       d="M 675.57,142.68 720.36,81.4503 719.71,80.9902 600.37,134.13 c 4.51,53.13 4.51,98.61 4.51,189.58 30.17,9 78.8,27.91 118,46.37 l 52.69,-62.59 c -31.07,-4.5 -80.15,-15.31 -103.12,-28.82 0,-57.64 0,-89.61 3.15,-136 z"
       fill="#f74700"
       id="path6" />
    <path
       d="m 440.35,308.08 -8.42,-2.84 c -24.77,-6.3 -49.08,-14.41 -69.34,-26.57 0,-57.64 1,-89.72 4.14,-136.1 h 0.17 L 411.26,82 409.87,81 290.54,134.13 c 4.5,53.13 4.5,98.61 4.5,189.58 25.22,6.3 60.79,27.91 93.66,46.37 0,0 40.53,-48.18 50.44,-59.89 z"
       fill="#f74700"
       id="path8" />
    <path
       d="m 1525.81,317 -75.21,-10.36 c -27.46,-6.75 -55.83,-14.86 -77.89,-27.92 0,-57.19 0,-89.16 3.15,-134.64 l 0.31,0.05 L 1429,81 1300.67,134.14 c 4.5,53.13 4.5,98.61 4.5,189.58 25.21,6.3 73.4,32.87 92.31,46.37 z"
       fill="#f74700"
       id="path10" />
    <path
       d="m 2057.51,218.3 h -55.24 -54.93 c 0.45,-25.67 1.35,-48.18 3.15,-75.65 l 0.33,0.1 43.86,-61.75 -119.34,53.14 c 4.51,53.13 4.51,98.61 4.51,189.58 30.16,9 78.8,27.91 118,46.37 l 52.69,-62.59 c -31.07,-4.5 -80.15,-15.31 -103.12,-28.82 v -40.54 l 57.19,22.52 c 19.19,-16.51 29.1,-25.51 52.95,-42.33"
       fill="#f74700"
       id="path12" />
    <path
       d="M 79.3199,90.8999 190.54,104.4 205.86,27.8499 71.1499,14.3799 l 8.14,76.93 z"
       fill="#b53a25"
       id="path14" />
    <path
       d="m 220.72,399.81 c -4.51,-81.06 -4.51,-139.15 -4.51,-230.11 -25.22,-6.3 -77.9,-32.87 -96.81,-46.39 0,0 -25.8701,28.78 -42.5401,47.35 V 190 c 23.7801,7.18 48.0001,15.72 67.3101,28.74 0,72.05 0,109 -4.51,190 z"
       fill="#b53a25"
       id="path16" />
    <path
       d="m 2128.59,338.12 c 26.88,11.64 57,23.47 68.69,32 l 56.29,-62.59 c -14.89,-1.28 -41.28,-10.91 -56.48,-19 z"
       fill="#b53a25"
       id="path18" />
    <path
       d="m 1281.72,740 -15.1,-69.31 -78.2,13.33 c -15.11,-39.1 -21.78,-61.32 -31.55,-100.42 22.21,-13.77 70.2,-44.43 90.64,-61.31 36,8.88 72.43,19.55 101.75,19.55 l -18.66,72.42 c -28.44,-6.22 -69.32,-21.77 -96,-33.32 l 25.32,74.64 68,-20.88 c 12,36 20,69.31 28,112 -28.43,19.11 -54.65,45.76 -70.64,60 -47.1,-8.88 -72.87,-13.77 -122.19,-13.77 7.11,-31.55 20,-56.87 32,-76 z"
       fill="#b53a25"
       id="path20" />
    <path
       d="m 1493.65,531.15 h 39.1 l -6.22,44 h -34.21 c -0.89,37.33 -0.89,78.64 -0.89,151.07 14.67,8.44 38.66,17.33 54.21,18.66 l -55.54,61.76 c -11.55,-8.44 -38.66,-20.44 -65.32,-32 0,-82.64 0,-145.29 -0.88,-199.5 h -21.33 c 8,-19.55 12,-24.44 20,-44 -0.44,-18.21 -1.33,-36 -2.22,-53.32 l 75.53,8.89 c -0.88,16.45 -1.78,30.67 -2.23,44.44 z"
       fill="#b53a25"
       id="path22" />
    <path
       d="m 1424.78,774.64 c 0,-82.64 0,-145.29 -0.88,-199.5 h -21.33 c 8,-19.55 12,-24.44 20,-44 -0.44,-18.21 -1.33,-36 -2.22,-53.32 l 75.53,8.89 c -0.88,16.44 -1.77,30.66 -2.22,44.43 h 39.1 l -6.22,44 h -34.21 c -0.89,37.33 -0.89,78.64 -0.89,151.07"
       fill="#f74700"
       id="path24" />
    <path
       d="m 1198.52,682.28 69.84,-29.3 -8.41,2.58 -25.32,-74.64 10.22,-56.52 c -21.66,17.22 -66.66,46 -88,59.18 9.77,39.1 16.44,61.32 31.55,100.42 z"
       fill="#f74700"
       id="path26" />
    <path
       d="m 1281.72,740 -86.64,-23.1 c -12,19.11 -24.88,44.43 -32,76 49.32,0 75.09,4.89 122.19,13.77 15.78,-14 41.52,-40.16 69.52,-59.2 z"
       fill="#f74700"
       id="path28" />
    <path
       d="m 1107,552.75 -0.91,104.92 c -24.31,17.12 -34.22,26.13 -53.58,42.79 l -57.19,-22.52 v 40.53 c 23,13.51 72,24.32 103.12,28.82 l -52.69,62.59 c -39.17,-18.46 -87.81,-37.37 -118,-46.38 0,-91 0,-136.45 -4.5,-189.58 l 119.34,-53.13 c 18.93,13.5 36.48,18.91 64.41,31.96 z m -56.75,105.37 v -54.93 c -16.21,-8.1 -31.07,-14 -51.78,-20.71 -1.8,27.46 -2.7,50 -3.15,75.64 z"
       fill="#f74700"
       id="path30" />
    <path
       d="m 1001.38,582.48 -0.07,0.94 c 19.22,6.36 33.5,12.05 48.94,19.77 v 54.93 h 55.21 l 0.63,-0.45 0.91,-104.92 c -26.65,-12.45 -43.85,-18 -61.8,-30.17 z"
       fill="#b53a25"
       id="path32" />
    <path
       d="m 831.645,814.341 0.641,-0.376 c -0.891,-103.441 0,-139.571 2.663,-250.11 h 24.028 L 878.11,513.139 H 836.291 L 841.5,470 c 27.142,-8.616 48.546,-22.964 69,-26 -0.881,-0.514 -54.957,-33.301 -66.5,-48 -11.574,9.632 -51.3,22.315 -77.991,35.519 1.331,25.86 2.673,53.238 3.564,81.631 h -0.441 L 750,563.866 h 21.355 c 0.25,8.856 0.491,17.347 0.721,25.575 h -8.951 c 0.901,62.699 0.901,186.578 0.901,282.155 27.032,13.364 23.929,7.635 35.642,17.404 l 64.075,-59.343 c -15.778,-1.552 -17.22,-4.303 -32.098,-14.06 z"
       fill="#b53a25"
       id="path34" />
    <path
       d="m 841,477.5 24.5,-13.5 43.565,28.312 30.473,-46.542 c -0.015,-0.272 -0.123,-1.269 -0.157,-1.493 L 851.773,387.44 C 826.868,403.099 779.984,424.52 760,433 Z"
       fill="#b53a25"
       id="path36" />
    <path
       d="M 836.406,513.253 841,477 851,388 c -8.202,6.854 -43.711,22.684 -61.85,31.96 v -0.343 l -29.618,13.24 c 0.892,20.059 1.804,40.644 2.256,61.685 -0.291,0.32 -0.301,7.916 -0.181,18.666 h -34.06 L 710,563.973 h 52.499 c 0.321,14.553 0.602,25.599 0.602,25.599 0.903,62.759 0.902,186.758 0.902,282.428 l 67.721,-56.054 v -1.245 l 0.641,-0.377 c -0.892,-103.54 0,-139.706 2.667,-250.351 h 43.225 L 898,513.253 Z"
       fill="#f74700"
       id="path38" />
    <path
       d="m 79.2898,91.3099 -8.14,-76.93 h -0.39 c -20.71,17.12 -45.93,36.92 -68.44002,50.88 C 6.81978,146.32 5.01977,276.01 0.509766,361.12 H 81.1198 c -2.14,-40.65 -3.7,-87.5 -4.26,-134.31 v -81.88 z"
       fill="#f74700"
       id="path40" />
    <path
       d="m 917.62,138.29 c 1.82,-52.0002 2,-91.5302 3.84,-123.9502 l -76.55,9 c 4.5,81.0002 3.61,200.8302 3.61,337.7302 H 917 V 239.5 Z"
       fill="#f74700"
       id="path42" />
    <path
       d="m 1045.29,230.49 c -15.3,-6.76 -32.42,-14.86 -46.37,-22.06 l 36.91,-14 v -80.57 c -34.21,-11.26 -45.92,-17.9998 -70.69,-32.8698 0,0 -31.38,34.5798 -47.17,52.3598 l -0.11,12 c 21.62,4 31.07,5.86 50.44,11.25 v 23.9 c 0,4.49 -30.9,29.13 -51.17,47.13 l -0.09,10.68 1,0.79 c 26,9.44 45.8,17.52 59.73,23.81 0,22.52 -0.45,80.6 -0.45,99.52 l 68,8.1 C 1043,335.87 1043,270.12 1045.29,230.49 Z"
       fill="#b53a25"
       id="path44" />
    <path
       d="m 675.57,142.68 c 28.37,9.45 46.39,16.66 70.7,31.52 L 784.1,113 C 756.5,100.09 739.03,94.65 720.36,81.48 Z"
       fill="#b53a25"
       id="path46" />
    <path
       d="M 502.64,288.58 C 501.9,208.06 502.18,189.06 502.18,127.37 477.53,121.2 431,95.71 411.27,82 l -44.42,60.73 0.06,0.22 c 27.68,5 45.08,12.53 67.73,22.3 0,41 -1.11,77.44 -2.71,140 l 8.42,2.84 -1.06,2.35 c 17.55,28.71 41.76,51.57 53,59.65 l 56.28,-62.59 c -15.31,-2.26 -31.08,-10.36 -45.93,-18.92 z"
       fill="#b53a25"
       id="path48" />
    <path
       d="m 1126.37,337.66 c 0,-83.75 0,-147.25 -0.89,-202.19 h -21.62 c 8.1,-19.81 12.16,-24.76 20.26,-44.5701 -0.45,-18.47 -1.35,-36.48 -2.25,-54 l 76.55,9 c -0.89,16.66 -1.8,31.07 -2.25,45 h 39.62 l -6.3,44.5701 h -34.67 c -0.9,37.83 -0.9,79.71 -0.9,153.11 z"
       fill="#f74700"
       id="path50" />
    <path
       d="m 1376,144.34 4.41,0.53 c 26.05,4.88 52.54,11.38 73.4,20.33 0,42.32 0,75.64 -3.16,141.39 l 75.16,10.41 c -4.5,-81.06 -4.5,-127.89 -4.5,-189.58 -25.22,-6.31 -73.41,-32.88 -92.32,-46.38 z"
       fill="#b53a25"
       id="path52" />
    <path
       d="m 1664,135 c 2.62,-57.8899 1.7,-104.7799 2.75,-134.149902 L 1595.6,23.3701 c 1.35,80.9999 0.45,238.6599 0.45,300.3599 25.22,6.3 73.41,32.87 92.32,46.37 L 1807.73,317 v -0.14 l -75.45,-8.29 v -0.17 c -28.23,-5 -45.75,-12.6 -68.65,-22.48 0,-22 0,-80.15 0.45,-140.49 z"
       fill="#f74700"
       id="path54" />
    <path
       d="m 1807.72,316.81 c -4.49,-53.07 -4.49,-98.56 -4.49,-189.44 -25.23,-6.31 -60.8,-27.9198 -93.67,-46.3798 0,0 -30.8,36.4598 -45.31,53.8298 v 10.6 c 25.61,6.3 50.34,14.84 71.46,27 0,57.11 -1.06,90.14 -3.41,136.12 z"
       fill="#b53a25"
       id="path56" />
    <path
       d="m 1950.6,143.1 2.88,0.91 c 19.23,6.36 32.93,11.24 48.37,19 v 54.94 l 55.63,0.42 c 0.22,-0.16 1,-0.79 1.17,-0.94 L 2059,113 c -26.65,-12.46 -46.2,-20 -64.15,-32.21 z"
       fill="#b53a25"
       id="path58" />
    <path
       d="m 2223.85,81.8901 -26.12,32.4199 -0.64,0.71 v 39.91 l 3.21,1.65 c 13.92,5.865 27.51,12.498 40.7,19.87 l 54,-61.69 c -21.17,-10.36 -49.09,-22.0699 -71.15,-32.8699 z"
       fill="#b53a25"
       id="path60" />
    <path
       d="M 319.56,685.86 387,596.22 398.21,548.6 c -19.1,6.62 -37.44,17.57 -54,27.5 l -23.17,-39 c 23.42,-6.62 39.47,-13 62.39,-21.65 l 62.39,36.17 -25.21,70.28 -50.93,54.5 c 23.93,0 48.38,0.25 70.54,-3.06 l -12.74,38.2 h -93.41 z"
       fill="#677662"
       id="path62" />
    <path
       d="m 613.18,546.82 c 0,34.89 0.26,94 2.81,139.81 l -72.58,30 c -10.7,-7.64 -37.95,-22.67 -52.21,-26.23 0,-51.45 -0.25,-109.76 -2.8,-139.81 l 72.58,-30 c 10.69,7.64 37.94,22.66 52.2,26.23 z m -39.72,133.95 c 1.78,-37.18 1.52,-88.62 1.52,-112.56 -12.47,-5.35 -28.52,-9.17 -44.05,-12 -1.78,26.48 -1.53,76.4 -1.53,108.74 12.48,7.42 28.52,12.05 44.06,15.82 z"
       fill="#677662"
       id="path64" />
    <path
       d="m 1651.08,685.86 67.49,-89.64 11.2,-47.62 c -19.1,6.62 -37.43,17.57 -54,27.5 l -23.17,-39 c 23.43,-6.62 39.47,-13 62.39,-21.65 l 62.39,36.17 -25.21,70.28 -50.93,54.5 c 23.94,0 48.39,0.25 70.54,-3.06 l -12.73,38.2 h -93.45 z"
       fill="#677662"
       id="path66" />
    <path
       d="m 1833.17,716.93 c 0,-19.86 -1.79,-111.29 -1.79,-145.66 l 22.67,-14.78 h -34.13 l 6.63,-35.9 h 45.83 l -2.8,35.65 c 0.26,55.77 0.77,131.15 2.8,155.6 z"
       fill="#677662"
       id="path68" />
  </g>
  <rect
     style="fill:none;fill-rule:evenodd;stroke:#ff6600"
     id="rect114"
     width="2174.6741"
     height="925.76483"
     x="117.79379"
     y="-16.345304" />
  <text
     xml:space="preserve"
     style="font-size:42.6667px;line-height:1.25;font-family:calibri;-inkscape-font-specification:calibri;text-align:center;text-anchor:middle"
     x="1362.4464"
     y="-417.03088"
     id="text167"><tspan
       sodipodi:role="line"
       id="tspan165"
       x="1362.4464"
       y="-417.03088" /></text>
</svg>
